<svg width="16" height="18" viewBox="0 0 16 18" fill="none" xmlns="http://www.w3.org/2000/svg">
<path d="M12.6 1.8C10.863 1.8 9.45 3.213 9.45 4.95C9.45 6.3486 10.3725 7.5231 11.637 7.9335C11.5056 8.7723 11.1447 9.4635 10.53 10.0242C8.7786 11.6199 5.5557 11.7657 4.05 11.7405V6.1533C5.346 5.7627 6.3 4.572 6.3 3.15C6.3 1.413 4.887 0 3.15 0C1.413 0 0 1.413 0 3.15C0 4.572 0.954 5.7627 2.25 6.1533V11.8467C0.954 12.2373 0 13.428 0 14.85C0 16.587 1.413 18 3.15 18C4.887 18 6.3 16.587 6.3 14.85C6.3 14.3541 6.174 13.8915 5.9697 13.4739C7.8237 13.3065 10.161 12.7926 11.7378 11.3589C12.7251 10.4616 13.2957 9.3213 13.4514 7.9677C14.7735 7.5942 15.75 6.39 15.75 4.95C15.75 3.213 14.337 1.8 12.6 1.8ZM1.8 3.15C1.8 2.4057 2.4057 1.8 3.15 1.8C3.8943 1.8 4.5 2.4057 4.5 3.15C4.5 3.8943 3.8943 4.5 3.15 4.5C2.4057 4.5 1.8 3.8943 1.8 3.15ZM3.15 16.2C2.4057 16.2 1.8 15.5943 1.8 14.85C1.80045 14.4951 1.94066 14.1546 2.19029 13.9022C2.43992 13.6499 2.77888 13.5061 3.1338 13.5018L3.2508 13.5108C3.42738 13.5174 3.60092 13.5588 3.76152 13.6324C3.92212 13.7061 4.06664 13.8107 4.18681 13.9403C4.30699 14.0698 4.40048 14.2217 4.46194 14.3874C4.52339 14.5531 4.55162 14.7292 4.545 14.9058C4.53838 15.0824 4.49705 15.2559 4.42336 15.4165C4.34967 15.5771 4.24508 15.7216 4.11554 15.8418C3.986 15.962 3.83406 16.0555 3.66839 16.1169C3.50273 16.1784 3.32658 16.2066 3.15 16.2ZM12.6 6.3C11.8557 6.3 11.25 5.6943 11.25 4.95C11.25 4.2057 11.8557 3.6 12.6 3.6C13.3443 3.6 13.95 4.2057 13.95 4.95C13.95 5.6943 13.3443 6.3 12.6 6.3Z" fill="#8752CC"/>
</svg>
