<svg width="16" height="16" viewBox="0 0 16 16" fill="none" xmlns="http://www.w3.org/2000/svg">
<path d="M10.0919 6.07145C10.4755 6.07145 10.8434 6.22384 11.1146 6.4951C11.3859 6.76635 11.5383 7.13426 11.5383 7.51787V11.5351C11.5383 12.473 11.1657 13.3725 10.5025 14.0357C9.83931 14.6989 8.93983 15.0714 8.00193 15.0714C7.06403 15.0714 6.16454 14.6989 5.50135 14.0357C4.83815 13.3725 4.46557 12.473 4.46557 11.5351V7.51787C4.46557 7.13426 4.61796 6.76635 4.88922 6.4951C5.16048 6.22384 5.52838 6.07145 5.912 6.07145H10.0919ZM10.0919 7.03573H5.912C5.78413 7.03573 5.66149 7.08653 5.57107 7.17695C5.48065 7.26737 5.42986 7.39 5.42986 7.51787V11.5351C5.42986 12.2172 5.70084 12.8715 6.1832 13.3538C6.66555 13.8362 7.31977 14.1072 8.00193 14.1072C8.68408 14.1072 9.3383 13.8362 9.82066 13.3538C10.303 12.8715 10.574 12.2172 10.574 11.5351V7.51787C10.574 7.39 10.5232 7.26737 10.4328 7.17695C10.3424 7.08653 10.2197 7.03573 10.0919 7.03573ZM1.73214 6.07145H4.40386C4.14576 6.34017 3.9644 6.67315 3.87864 7.03573H1.73214C1.60427 7.03573 1.48163 7.08653 1.39121 7.17695C1.3008 7.26737 1.25 7.39 1.25 7.51787V10.8922C1.24991 11.2148 1.3307 11.5322 1.48498 11.8155C1.63926 12.0988 1.8621 12.3388 2.13312 12.5137C2.40414 12.6886 2.71468 12.7928 3.03635 12.8167C3.35802 12.8406 3.68055 12.7834 3.97443 12.6504C4.05993 12.9654 4.18271 13.265 4.337 13.5453C3.89656 13.7376 3.41515 13.8172 2.93626 13.7768C2.45736 13.7365 1.99606 13.5775 1.59401 13.3142C1.19196 13.0509 0.861817 12.6916 0.633404 12.2687C0.40499 11.8459 0.285496 11.3728 0.285713 10.8922V7.51787C0.285713 7.13426 0.438104 6.76635 0.709362 6.4951C0.98062 6.22384 1.34852 6.07145 1.73214 6.07145ZM14.2679 6.07145C14.6515 6.07145 15.0194 6.22384 15.2906 6.4951C15.5619 6.76635 15.7143 7.13426 15.7143 7.51787V10.8929C15.7145 11.3732 15.5951 11.846 15.3668 12.2686C15.1386 12.6913 14.8087 13.0504 14.407 13.3137C14.0052 13.5769 13.5443 13.736 13.0657 13.7766C12.5871 13.8171 12.1059 13.7379 11.6656 13.5459L11.7016 13.4804C11.8391 13.2194 11.9504 12.9423 12.0301 12.6517C12.3238 12.7839 12.6459 12.8404 12.9671 12.8161C13.2883 12.7917 13.5982 12.6874 13.8687 12.5125C14.1391 12.3376 14.3615 12.0977 14.5154 11.8148C14.6694 11.5319 14.75 11.215 14.75 10.8929V7.51787C14.75 7.39011 14.6993 7.26758 14.609 7.17718C14.5187 7.08677 14.3963 7.0359 14.2685 7.03573H12.1259C12.0399 6.67307 11.8584 6.34007 11.6 6.07145H14.2685H14.2679ZM8 0.928589C8.29547 0.928589 8.58805 0.986787 8.86104 1.09986C9.13402 1.21293 9.38206 1.37867 9.59099 1.5876C9.79992 1.79653 9.96565 2.04457 10.0787 2.31755C10.1918 2.59053 10.25 2.88311 10.25 3.17859C10.25 3.47406 10.1918 3.76664 10.0787 4.03963C9.96565 4.31261 9.79992 4.56065 9.59099 4.76958C9.38206 4.97851 9.13402 5.14424 8.86104 5.25732C8.58805 5.37039 8.29547 5.42859 8 5.42859C7.40326 5.42859 6.83097 5.19154 6.40901 4.76958C5.98705 4.34762 5.75 3.77533 5.75 3.17859C5.75 2.58185 5.98705 2.00956 6.40901 1.5876C6.83097 1.16564 7.40326 0.928589 8 0.928589ZM13.1448 1.57145C13.398 1.57145 13.6488 1.62133 13.8828 1.71825C14.1168 1.81517 14.3294 1.95723 14.5085 2.13631C14.6876 2.3154 14.8296 2.528 14.9266 2.76199C15.0235 2.99597 15.0734 3.24675 15.0734 3.50002C15.0734 3.75328 15.0235 4.00406 14.9266 4.23805C14.8296 4.47203 14.6876 4.68464 14.5085 4.86372C14.3294 5.04281 14.1168 5.18487 13.8828 5.28179C13.6488 5.37871 13.398 5.42859 13.1448 5.42859C12.6333 5.42859 12.1428 5.2254 11.7811 4.86372C11.4194 4.50205 11.2162 4.01151 11.2162 3.50002C11.2162 2.98853 11.4194 2.49799 11.7811 2.13631C12.1428 1.77463 12.6333 1.57145 13.1448 1.57145ZM2.85521 1.57145C3.10848 1.57145 3.35926 1.62133 3.59325 1.71825C3.82723 1.81517 4.03983 1.95723 4.21892 2.13631C4.398 2.3154 4.54006 2.528 4.63698 2.76199C4.7339 2.99597 4.78378 3.24675 4.78378 3.50002C4.78378 3.75328 4.7339 4.00406 4.63698 4.23805C4.54006 4.47203 4.398 4.68464 4.21892 4.86372C4.03983 5.04281 3.82723 5.18487 3.59325 5.28179C3.35926 5.37871 3.10848 5.42859 2.85521 5.42859C2.34372 5.42859 1.85318 5.2254 1.49151 4.86372C1.12983 4.50205 0.926641 4.01151 0.926641 3.50002C0.926641 2.98853 1.12983 2.49799 1.49151 2.13631C1.85318 1.77463 2.34372 1.57145 2.85521 1.57145ZM8 1.89287C7.65901 1.89287 7.33198 2.02833 7.09086 2.26945C6.84974 2.51057 6.71428 2.8376 6.71428 3.17859C6.71428 3.51958 6.84974 3.84661 7.09086 4.08773C7.33198 4.32884 7.65901 4.4643 8 4.4643C8.34099 4.4643 8.66802 4.32884 8.90914 4.08773C9.15025 3.84661 9.28571 3.51958 9.28571 3.17859C9.28571 2.8376 9.15025 2.51057 8.90914 2.26945C8.66802 2.02833 8.34099 1.89287 8 1.89287ZM13.1448 2.53573C13.0182 2.53573 12.8928 2.56067 12.7758 2.60913C12.6588 2.65759 12.5525 2.72862 12.4629 2.81816C12.3734 2.90771 12.3024 3.01401 12.2539 3.131C12.2054 3.24799 12.1805 3.37339 12.1805 3.50002C12.1805 3.62665 12.2054 3.75204 12.2539 3.86903C12.3024 3.98603 12.3734 4.09233 12.4629 4.18187C12.5525 4.27141 12.6588 4.34244 12.7758 4.3909C12.8928 4.43936 13.0182 4.4643 13.1448 4.4643C13.4005 4.4643 13.6458 4.36271 13.8266 4.18187C14.0075 4.00103 14.1091 3.75576 14.1091 3.50002C14.1091 3.24427 14.0075 2.999 13.8266 2.81816C13.6458 2.63733 13.4005 2.53573 13.1448 2.53573ZM2.85521 2.53573C2.72858 2.53573 2.60319 2.56067 2.4862 2.60913C2.3692 2.65759 2.2629 2.72862 2.17336 2.81816C2.08382 2.90771 2.01279 3.01401 1.96433 3.131C1.91587 3.24799 1.89093 3.37339 1.89093 3.50002C1.89093 3.62665 1.91587 3.75204 1.96433 3.86903C2.01279 3.98603 2.08382 4.09233 2.17336 4.18187C2.2629 4.27141 2.3692 4.34244 2.4862 4.3909C2.60319 4.43936 2.72858 4.4643 2.85521 4.4643C3.11096 4.4643 3.35623 4.36271 3.53707 4.18187C3.7179 4.00103 3.8195 3.75576 3.8195 3.50002C3.8195 3.24427 3.7179 2.999 3.53707 2.81816C3.35623 2.63733 3.11096 2.53573 2.85521 2.53573Z" fill="#8752CC"/>
</svg>
