<svg width="16" height="16" viewBox="0 0 16 16" fill="none" xmlns="http://www.w3.org/2000/svg">
<path d="M10.4133 6.07145C11.0343 6.07145 11.5383 6.57545 11.5383 7.19645V11.5351C11.5383 12.473 11.1657 13.3725 10.5025 14.0357C9.83931 14.6989 8.93983 15.0714 8.00193 15.0714C7.06403 15.0714 6.16454 14.6989 5.50135 14.0357C4.83815 13.3725 4.46557 12.473 4.46557 11.5351V7.19645C4.46557 6.57545 4.96893 6.07145 5.59057 6.07145H10.4133ZM1.41071 6.07145L4.22771 6.07016C4.00271 6.34209 3.85743 6.68216 3.8285 7.05502L3.82207 7.19645V11.5351C3.82207 12.2634 4.00914 12.9487 4.33636 13.5453C3.89594 13.7375 3.41461 13.8169 2.9358 13.7765C2.457 13.7361 1.9958 13.577 1.59383 13.3138C1.19187 13.0505 0.8618 12.6913 0.633421 12.2685C0.405042 11.8457 0.285544 11.3727 0.285713 10.8922V7.19645C0.286356 6.57545 0.789713 6.07145 1.41136 6.07145H1.41071ZM11.7761 6.07016L14.5893 6.07145C15.2103 6.07145 15.7143 6.57545 15.7143 7.19645V10.8929C15.7145 11.3732 15.5951 11.846 15.3668 12.2686C15.1386 12.6913 14.8087 13.0504 14.407 13.3137C14.0052 13.5769 13.5443 13.736 13.0657 13.7766C12.5871 13.8171 12.1059 13.7379 11.6656 13.5459L11.7016 13.4804C11.9774 12.9577 12.1451 12.3689 12.176 11.7447L12.1811 11.5351V7.19645C12.1811 6.7683 12.0288 6.37616 11.7761 6.07016ZM8 0.928589C8.29547 0.928589 8.58805 0.986787 8.86104 1.09986C9.13402 1.21293 9.38206 1.37867 9.59099 1.5876C9.79992 1.79653 9.96566 2.04457 10.0787 2.31755C10.1918 2.59053 10.25 2.88311 10.25 3.17859C10.25 3.47406 10.1918 3.76664 10.0787 4.03963C9.96566 4.31261 9.79992 4.56065 9.59099 4.76958C9.38206 4.97851 9.13402 5.14424 8.86104 5.25732C8.58805 5.37039 8.29547 5.42859 8 5.42859C7.40326 5.42859 6.83097 5.19154 6.40901 4.76958C5.98705 4.34762 5.75 3.77533 5.75 3.17859C5.75 2.58185 5.98705 2.00956 6.40901 1.5876C6.83097 1.16564 7.40326 0.928589 8 0.928589ZM13.1448 1.57145C13.398 1.57145 13.6488 1.62133 13.8828 1.71825C14.1168 1.81517 14.3294 1.95723 14.5085 2.13631C14.6876 2.3154 14.8296 2.528 14.9266 2.76199C15.0235 2.99597 15.0734 3.24675 15.0734 3.50002C15.0734 3.75328 15.0235 4.00406 14.9266 4.23805C14.8296 4.47203 14.6876 4.68464 14.5085 4.86372C14.3294 5.04281 14.1168 5.18487 13.8828 5.28179C13.6488 5.37871 13.398 5.42859 13.1448 5.42859C12.6333 5.42859 12.1428 5.2254 11.7811 4.86372C11.4194 4.50205 11.2162 4.01151 11.2162 3.50002C11.2162 2.98853 11.4194 2.49799 11.7811 2.13631C12.1428 1.77463 12.6333 1.57145 13.1448 1.57145ZM2.85521 1.57145C3.10848 1.57145 3.35926 1.62133 3.59325 1.71825C3.82723 1.81517 4.03984 1.95723 4.21892 2.13631C4.398 2.3154 4.54006 2.528 4.63698 2.76199C4.7339 2.99597 4.78379 3.24675 4.78379 3.50002C4.78379 3.75328 4.7339 4.00406 4.63698 4.23805C4.54006 4.47203 4.398 4.68464 4.21892 4.86372C4.03984 5.04281 3.82723 5.18487 3.59325 5.28179C3.35926 5.37871 3.10848 5.42859 2.85521 5.42859C2.34372 5.42859 1.85318 5.2254 1.49151 4.86372C1.12983 4.50205 0.926642 4.01151 0.926642 3.50002C0.926642 2.98853 1.12983 2.49799 1.49151 2.13631C1.85318 1.77463 2.34372 1.57145 2.85521 1.57145Z" fill="#8752CC"/>
</svg>
