<svg width="10" height="16" viewBox="0 0 10 16" fill="none" xmlns="http://www.w3.org/2000/svg">
<path d="M5 0.808105C2.5142 0.808105 0.5 2.81421 0.5 5.29911C0.5 9.59571 5 15.1991 5 15.1991C5 15.1991 9.5 9.59481 9.5 5.29911C9.5 2.81511 7.4858 0.808105 5 0.808105ZM5 7.78401C4.35552 7.78401 3.73744 7.52799 3.28173 7.07228C2.82602 6.61656 2.57 5.99848 2.57 5.35401C2.57 4.70953 2.82602 4.09145 3.28173 3.63574C3.73744 3.18002 4.35552 2.92401 5 2.92401C5.64448 2.92401 6.26256 3.18002 6.71827 3.63574C7.17398 4.09145 7.43 4.70953 7.43 5.35401C7.43 5.99848 7.17398 6.61656 6.71827 7.07228C6.26256 7.52799 5.64448 7.78401 5 7.78401Z" fill="#8752CC"/>
</svg>
