<svg width="169" height="58" viewBox="0 0 169 58" fill="none" xmlns="http://www.w3.org/2000/svg">
<path fill-rule="evenodd" clip-rule="evenodd" d="M28 0C12.53 0 0 12.6175 0 28.1956C0 40.6721 8.015 51.2102 19.145 54.9461C20.545 55.1928 21.07 54.347 21.07 53.6068C21.07 52.9372 21.035 50.7168 21.035 48.3554C14 49.6595 12.18 46.6284 11.62 45.0424C11.305 44.2318 9.94 41.7295 8.75 41.0598C7.77 40.5311 6.37 39.2271 8.715 39.1919C10.92 39.1566 12.495 41.236 13.02 42.0819C15.54 46.3465 19.565 45.1482 21.175 44.408C21.42 42.5753 22.155 41.3418 22.96 40.6369C16.73 39.932 10.22 37.5001 10.22 26.7153C10.22 23.649 11.305 21.1114 13.09 19.1377C12.81 18.4329 11.83 15.5428 13.37 11.6659C13.37 11.6659 15.715 10.9258 21.07 14.556C23.31 13.9216 25.69 13.6044 28.07 13.6044C30.45 13.6044 32.83 13.9216 35.07 14.556C40.425 10.8905 42.77 11.6659 42.77 11.6659C44.31 15.5428 43.33 18.4329 43.05 19.1377C44.835 21.1114 45.92 23.6138 45.92 26.7153C45.92 37.5354 39.375 39.932 33.145 40.6369C34.16 41.518 35.035 43.2097 35.035 45.8531C35.035 49.6242 35 52.6552 35 53.6068C35 54.347 35.525 55.2281 36.925 54.9461C42.4835 53.0565 47.3136 49.4592 50.7354 44.6605C54.1573 39.8617 55.9985 34.1033 56 28.1956C56 12.6175 43.47 0 28 0Z" fill="#8752CC"/>
<path d="M85.0476 20.0478H76.3011C76.0754 20.0478 75.8922 20.2312 75.8922 20.4568V24.7332C75.8922 24.9589 76.0754 25.1425 76.3009 25.1425H79.7132V30.4557C79.7132 30.4557 78.947 30.7169 76.8288 30.7169C74.3297 30.7169 70.8386 29.8036 70.8386 22.1271C70.8386 14.449 74.474 13.4389 77.8867 13.4389C80.8407 13.4389 82.1135 13.9589 82.9231 14.2095C83.1777 14.2875 83.4131 14.0342 83.4131 13.8084L84.3887 9.67639C84.3887 9.57077 84.3529 9.44361 84.2325 9.35728C83.9036 9.12267 81.8974 8 76.8286 8C70.9898 8 65 10.4842 65 22.4265C65 34.3693 71.8575 36.1489 77.6364 36.1489C82.421 36.1489 85.3235 34.1042 85.3235 34.1042C85.4433 34.0382 85.4561 33.871 85.4561 33.7942V20.4568C85.4561 20.2314 85.2733 20.0478 85.0478 20.0478H85.0476ZM130.101 9.4948C130.101 9.2673 129.92 9.08367 129.695 9.08367H124.77C124.716 9.08388 124.663 9.09469 124.613 9.11546C124.564 9.13624 124.519 9.16658 124.481 9.20476C124.443 9.24294 124.413 9.2882 124.392 9.33796C124.372 9.38773 124.362 9.44102 124.362 9.4948L124.363 19.0124H116.687V9.495C116.687 9.2675 116.505 9.08387 116.28 9.08387H111.355C111.247 9.08447 111.143 9.12811 111.067 9.2052C110.99 9.2823 110.948 9.38654 110.948 9.495V35.2659C110.948 35.4934 111.131 35.6782 111.355 35.6782H116.28C116.505 35.6782 116.686 35.4934 116.686 35.2659V24.2427H124.363L124.349 35.2657C124.349 35.4932 124.532 35.678 124.757 35.678H129.694C129.92 35.678 130.1 35.4932 130.1 35.2657V9.495L130.101 9.4948ZM94.3252 12.9404C94.3252 11.1671 92.9033 9.73388 91.1493 9.73388C89.3969 9.73388 87.974 11.1669 87.974 12.9404C87.974 14.7117 89.3969 16.1488 91.1493 16.1488C92.9033 16.1488 94.3252 14.7117 94.3252 12.9404ZM93.9343 29.8428V17.947C93.9343 17.7212 93.7521 17.5365 93.5269 17.5365H88.6175C88.3923 17.5365 88.191 17.7689 88.191 17.9948V35.038C88.191 35.5389 88.503 35.6878 88.907 35.6878H93.33C93.8155 35.6878 93.9343 35.4495 93.9343 35.0298V29.8428ZM148.924 17.5367H144.036C143.812 17.5367 143.63 17.7214 143.63 17.9487V30.5851C143.63 30.5851 142.388 31.4934 140.626 31.4934C138.864 31.4934 138.396 30.6937 138.396 28.9684V17.9489C138.396 17.7214 138.214 17.5365 137.99 17.5365H133.03C132.806 17.5365 132.622 17.7214 132.622 17.9489V29.8028C132.622 34.9277 135.479 36.1816 139.408 36.1816C142.632 36.1816 145.231 34.4008 145.231 34.4008C145.231 34.4008 145.355 35.3392 145.411 35.4505C145.467 35.5616 145.613 35.6735 145.77 35.6735L148.926 35.6597C149.15 35.6597 149.333 35.4747 149.333 35.2484L149.331 17.9487C149.331 17.7214 149.149 17.5367 148.924 17.5367ZM160.184 31.5032C158.489 31.4516 157.339 30.6824 157.339 30.6824V22.521C157.339 22.521 158.473 21.8257 159.865 21.7014C161.625 21.5438 163.321 22.0753 163.321 26.2737C163.321 30.7008 162.555 31.5745 160.184 31.503V31.5032ZM162.111 16.9832C159.336 16.9832 157.448 18.2217 157.448 18.2217V9.4948C157.448 9.44111 157.438 9.38788 157.418 9.33815C157.397 9.28842 157.368 9.24316 157.33 9.20498C157.292 9.16679 157.247 9.13642 157.198 9.1156C157.148 9.09479 157.095 9.08394 157.041 9.08367H152.102C152.049 9.08391 151.996 9.09474 151.946 9.11553C151.896 9.13633 151.852 9.16669 151.814 9.20487C151.776 9.24305 151.746 9.28831 151.726 9.33806C151.705 9.3878 151.695 9.44107 151.695 9.4948V35.2657C151.695 35.4932 151.878 35.678 152.103 35.678H155.53C155.684 35.678 155.801 35.5988 155.887 35.4593C155.972 35.3207 156.095 34.271 156.095 34.271C156.095 34.271 158.115 36.1848 161.938 36.1848C166.426 36.1848 169 33.9082 169 25.9646C169 18.021 164.889 16.983 162.111 16.983V16.9832ZM108.109 17.492H104.415L104.409 12.6115C104.409 12.4269 104.314 12.3345 104.1 12.3345H99.0661C98.8703 12.3345 98.7653 12.4206 98.7653 12.6087V17.6523C98.7653 17.6523 96.2425 18.2613 96.0718 18.3104C95.9867 18.3351 95.912 18.3868 95.8588 18.4576C95.8056 18.5285 95.7769 18.6147 95.7769 18.7033V21.8726C95.7769 22.1005 95.9589 22.2844 96.1842 22.2844H98.7653V29.9089C98.7653 35.572 102.738 36.1283 105.418 36.1283C106.643 36.1283 108.108 35.7349 108.35 35.6457C108.496 35.5919 108.581 35.4406 108.581 35.276L108.585 31.7896C108.585 31.5623 108.393 31.3783 108.177 31.3783C107.962 31.3783 107.411 31.4658 106.844 31.4658C105.03 31.4658 104.415 30.622 104.415 29.53L104.415 22.2846H108.109C108.163 22.2843 108.216 22.2735 108.266 22.2527C108.315 22.2319 108.36 22.2014 108.398 22.1632C108.436 22.1249 108.466 22.0795 108.486 22.0297C108.507 21.9798 108.517 21.9264 108.516 21.8726V17.903C108.516 17.6755 108.334 17.4922 108.109 17.4922V17.492Z" fill="white"/>
<path d="M98.483 51.3337C97.7548 51.3337 97.1022 51.2155 96.5252 50.979C95.9483 50.7426 95.4849 50.3926 95.1349 49.9292C94.7945 49.4658 94.6148 48.9078 94.5958 48.2552H97.1778C97.2157 48.624 97.3433 48.9078 97.5609 49.1064C97.7784 49.2955 98.0621 49.3901 98.4121 49.3901C98.7715 49.3901 99.0552 49.3097 99.2633 49.1489C99.4713 48.9787 99.5754 48.747 99.5754 48.4538C99.5754 48.2079 99.4903 48.0045 99.32 47.8437C99.1592 47.683 98.9559 47.5506 98.71 47.4465C98.4735 47.3425 98.1331 47.2243 97.6886 47.0918C97.0454 46.8932 96.5205 46.6946 96.1138 46.496C95.7071 46.2974 95.3572 46.0042 95.064 45.6164C94.7708 45.2287 94.6242 44.7227 94.6242 44.0984C94.6242 43.1716 94.96 42.4481 95.6315 41.9279C96.303 41.3982 97.1778 41.1334 98.256 41.1334C99.3531 41.1334 100.237 41.3982 100.909 41.9279C101.58 42.4481 101.94 43.1763 101.987 44.1126H99.3626C99.3437 43.7911 99.2254 43.5404 99.0079 43.3607C98.7904 43.1716 98.5114 43.077 98.1709 43.077C97.8777 43.077 97.6413 43.1574 97.4616 43.3182C97.2819 43.4695 97.192 43.6918 97.192 43.985C97.192 44.3065 97.3433 44.5572 97.646 44.7369C97.9486 44.9166 98.4215 45.1104 99.0647 45.3185C99.7078 45.536 100.228 45.7441 100.625 45.9427C101.032 46.1413 101.382 46.4298 101.675 46.8081C101.968 47.1864 102.115 47.6735 102.115 48.2693C102.115 48.8368 101.968 49.3523 101.675 49.8157C101.391 50.2791 100.975 50.648 100.427 50.9223C99.878 51.1965 99.2302 51.3337 98.483 51.3337ZM108.942 43.2189V45.2334H112.191V47.106H108.942V49.2908H112.616V51.2344H106.516V41.2753H112.616V43.2189H108.942ZM123.299 49.4752H119.582L118.986 51.2344H116.447L120.05 41.2753H122.859L126.463 51.2344H123.895L123.299 49.4752ZM122.675 47.6026L121.441 43.9566L120.221 47.6026H122.675ZM135.547 51.2344L133.475 47.4749H132.894V51.2344H130.468V41.2753H134.539C135.324 41.2753 135.991 41.4124 136.54 41.6867C137.098 41.961 137.514 42.3393 137.788 42.8216C138.062 43.2945 138.2 43.8242 138.2 44.4106C138.2 45.0726 138.01 45.6637 137.632 46.1839C137.263 46.7041 136.715 47.0729 135.986 47.2905L138.285 51.2344H135.547ZM132.894 45.7583H134.397C134.842 45.7583 135.173 45.6495 135.391 45.432C135.618 45.2145 135.731 44.9071 135.731 44.5099C135.731 44.1316 135.618 43.8336 135.391 43.6161C135.173 43.3986 134.842 43.2898 134.397 43.2898H132.894V45.7583ZM142.219 46.2406C142.219 45.257 142.432 44.3822 142.858 43.6161C143.283 42.8406 143.874 42.24 144.631 41.8144C145.397 41.3793 146.262 41.1618 147.227 41.1618C148.409 41.1618 149.421 41.4739 150.263 42.0981C151.105 42.7223 151.668 43.5735 151.951 44.6517H149.284C149.086 44.2356 148.802 43.9188 148.433 43.7012C148.074 43.4837 147.662 43.3749 147.199 43.3749C146.452 43.3749 145.846 43.635 145.383 44.1552C144.919 44.6754 144.688 45.3705 144.688 46.2406C144.688 47.1108 144.919 47.8059 145.383 48.3261C145.846 48.8463 146.452 49.1064 147.199 49.1064C147.662 49.1064 148.074 48.9976 148.433 48.7801C148.802 48.5625 149.086 48.2457 149.284 47.8296H151.951C151.668 48.9078 151.105 49.759 150.263 50.3832C149.421 50.9979 148.409 51.3053 147.227 51.3053C146.262 51.3053 145.397 51.0925 144.631 50.6669C143.874 50.2318 143.283 49.6313 142.858 48.8652C142.432 48.0991 142.219 47.2243 142.219 46.2406ZM164.971 41.2753V51.2344H162.545V47.1344H158.771V51.2344H156.345V41.2753H158.771V45.1766H162.545V41.2753H164.971Z" fill="#8752CC"/>
</svg>
