<svg width="197" height="242" viewBox="0 0 197 242" fill="none" xmlns="http://www.w3.org/2000/svg">
<path fill-rule="evenodd" clip-rule="evenodd" d="M97.5 0C64.0737 0 37 27.0737 37 60.5C37 87.2712 54.3181 109.883 78.3669 117.899C81.3919 118.429 82.5262 116.614 82.5262 115.026C82.5262 113.589 82.4506 108.824 82.4506 103.757C67.25 106.556 63.3175 100.052 62.1075 96.6488C61.4269 94.9094 58.4775 89.54 55.9062 88.1031C53.7887 86.9688 50.7638 84.1706 55.8306 84.095C60.595 84.0194 63.9981 88.4812 65.1325 90.2962C70.5775 99.4469 79.2744 96.8756 82.7531 95.2875C83.2825 91.355 84.8706 88.7081 86.61 87.1956C73.1488 85.6831 59.0825 80.465 59.0825 57.3237C59.0825 50.7444 61.4269 45.2994 65.2838 41.0644C64.6788 39.5519 62.5612 33.3506 65.8888 25.0319C65.8888 25.0319 70.9556 23.4438 82.5262 31.2331C87.3662 29.8719 92.5088 29.1912 97.6513 29.1912C102.794 29.1912 107.936 29.8719 112.776 31.2331C124.347 23.3681 129.414 25.0319 129.414 25.0319C132.741 33.3506 130.624 39.5519 130.019 41.0644C133.876 45.2994 136.22 50.6688 136.22 57.3237C136.22 80.5406 122.078 85.6831 108.617 87.1956C110.81 89.0863 112.701 92.7163 112.701 98.3881C112.701 106.48 112.625 112.984 112.625 115.026C112.625 116.614 113.759 118.504 116.784 117.899C128.795 113.845 139.231 106.126 146.625 95.8291C154.018 85.5324 157.997 73.1763 158 60.5C158 27.0737 130.926 0 97.5 0Z" fill="#8752CC"/>
<path d="M37.9525 170.808H21.3942C20.967 170.808 20.6202 171.155 20.6202 171.582V179.678C20.6202 180.105 20.967 180.453 21.3939 180.453H27.8537V190.511C27.8537 190.511 26.4032 191.006 22.3933 191.006C17.6623 191.006 11.0532 189.277 11.0532 174.744C11.0532 160.209 17.9353 158.296 24.396 158.296C29.9883 158.296 32.3978 159.281 33.9306 159.755C34.4124 159.903 34.8581 159.424 34.8581 158.996L36.7051 151.174C36.7051 150.974 36.6374 150.733 36.4093 150.569C35.7868 150.125 31.9887 148 22.3929 148C11.3393 148 0 152.703 0 175.311C0 197.92 12.982 201.289 23.9222 201.289C32.98 201.289 38.4747 197.418 38.4747 197.418C38.7016 197.293 38.7258 196.977 38.7258 196.832V171.582C38.7258 171.155 38.3797 170.808 37.9529 170.808H37.9525ZM123.243 150.83C123.243 150.399 122.902 150.052 122.475 150.052H113.151C113.049 150.052 112.949 150.072 112.855 150.112C112.761 150.151 112.676 150.208 112.604 150.281C112.532 150.353 112.475 150.439 112.437 150.533C112.398 150.627 112.379 150.728 112.379 150.83L112.381 168.848H97.8487V150.83C97.8487 150.4 97.5057 150.052 97.0793 150.052H87.7557C87.5504 150.053 87.3539 150.136 87.2095 150.282C87.0651 150.428 86.9845 150.625 86.9855 150.83V199.617C86.9855 200.048 87.3316 200.398 87.7557 200.398H97.0789C97.5054 200.398 97.848 200.048 97.848 199.617V178.749H112.381L112.355 199.617C112.355 200.048 112.702 200.398 113.128 200.398H122.473C122.9 200.398 123.242 200.048 123.243 199.617V150.83L123.243 150.83ZM55.516 157.353C55.516 153.996 52.8242 151.282 49.5037 151.282C46.1863 151.282 43.4926 153.995 43.4926 157.353C43.4926 160.706 46.1863 163.427 49.5037 163.427C52.8242 163.427 55.516 160.706 55.516 157.353ZM54.7761 189.351V166.831C54.7761 166.403 54.4312 166.054 54.0047 166.054H44.7108C44.2843 166.054 43.9033 166.494 43.9033 166.921V199.186C43.9033 200.134 44.4939 200.416 45.2588 200.416H53.6321C54.5511 200.416 54.7761 199.965 54.7761 199.171V189.351ZM158.877 166.054H149.625C149.201 166.054 148.855 166.404 148.855 166.834V190.756C148.855 190.756 146.505 192.476 143.169 192.476C139.833 192.476 138.948 190.962 138.948 187.696V166.834C138.948 166.404 138.603 166.054 138.178 166.054H128.788C128.364 166.054 128.017 166.404 128.017 166.834V189.275C128.017 198.977 133.425 201.351 140.864 201.351C146.966 201.351 151.887 197.98 151.887 197.98C151.887 197.98 152.121 199.756 152.227 199.967C152.333 200.177 152.609 200.389 152.907 200.389L158.881 200.363C159.305 200.363 159.652 200.013 159.652 199.584L159.649 166.834C159.649 166.404 159.303 166.054 158.877 166.054ZM180.194 192.494C176.985 192.397 174.808 190.94 174.808 190.94V175.49C174.808 175.49 176.956 174.174 179.59 173.938C182.922 173.64 186.132 174.646 186.132 182.594C186.132 190.975 184.684 192.629 180.194 192.494V192.494ZM183.843 165.006C178.589 165.006 175.014 167.351 175.014 167.351V150.83C175.015 150.728 174.996 150.627 174.957 150.533C174.919 150.439 174.863 150.353 174.791 150.281C174.72 150.209 174.635 150.151 174.541 150.112C174.447 150.073 174.347 150.052 174.245 150.052H164.895C164.793 150.052 164.693 150.072 164.599 150.112C164.505 150.151 164.42 150.209 164.348 150.281C164.277 150.353 164.22 150.439 164.182 150.533C164.143 150.627 164.124 150.728 164.125 150.83V199.617C164.125 200.048 164.47 200.398 164.896 200.398H171.383C171.676 200.398 171.897 200.248 172.06 199.984C172.221 199.721 172.454 197.734 172.454 197.734C172.454 197.734 176.277 201.357 183.515 201.357C192.011 201.357 196.884 197.047 196.884 182.009C196.884 166.971 189.102 165.006 183.843 165.006V165.006ZM81.6104 165.97H74.6168L74.606 156.73C74.606 156.381 74.4261 156.206 74.0215 156.206H64.4911C64.1204 156.206 63.9216 156.369 63.9216 156.725V166.273C63.9216 166.273 59.1456 167.426 58.8226 167.519C58.6615 167.566 58.52 167.663 58.4193 167.797C58.3186 167.932 58.2642 168.095 58.2643 168.263V174.263C58.2643 174.694 58.6088 175.042 59.0353 175.042H63.9216V189.476C63.9216 200.197 71.4417 201.25 76.5164 201.25C78.8352 201.25 81.6089 200.505 82.0669 200.337C82.3437 200.235 82.5045 199.948 82.5045 199.637L82.5122 193.036C82.5122 192.606 82.1488 192.258 81.7392 192.258C81.3316 192.258 80.2895 192.424 79.2159 192.424C75.7808 192.424 74.6168 190.826 74.6168 188.759L74.6164 175.042H81.6104C81.7123 175.042 81.8131 175.021 81.9071 174.982C82.0011 174.943 82.0863 174.885 82.158 174.813C82.2296 174.74 82.2863 174.654 82.3247 174.56C82.3631 174.465 82.3825 174.364 82.3818 174.263V166.747C82.3818 166.317 82.0369 165.97 81.6104 165.97V165.97Z" fill="white"/>
<path d="M39.8202 230.639C38.4415 230.639 37.2061 230.415 36.1139 229.968C35.0217 229.52 34.1444 228.857 33.4819 227.98C32.8373 227.103 32.4971 226.046 32.4613 224.811H37.3493C37.4209 225.509 37.6626 226.046 38.0745 226.422C38.4863 226.781 39.0234 226.96 39.6859 226.96C40.3663 226.96 40.9034 226.807 41.2973 226.503C41.6912 226.181 41.8882 225.742 41.8882 225.187C41.8882 224.721 41.727 224.337 41.4047 224.032C41.1004 223.728 40.7154 223.477 40.2499 223.28C39.8023 223.083 39.1577 222.859 38.3162 222.609C37.0986 222.233 36.1049 221.857 35.335 221.481C34.5651 221.105 33.9026 220.55 33.3476 219.816C32.7926 219.081 32.515 218.124 32.515 216.942C32.515 215.187 33.1506 213.817 34.4219 212.833C35.6931 211.83 37.3493 211.329 39.3905 211.329C41.4674 211.329 43.1415 211.83 44.4127 212.833C45.684 213.817 46.3644 215.196 46.4539 216.969H41.4853C41.4495 216.36 41.2257 215.885 40.8139 215.545C40.4021 215.187 39.8739 215.008 39.2293 215.008C38.6743 215.008 38.2266 215.16 37.8865 215.465C37.5463 215.751 37.3762 216.172 37.3762 216.727C37.3762 217.336 37.6626 217.81 38.2356 218.15C38.8086 218.491 39.7038 218.858 40.9213 219.252C42.1388 219.663 43.1236 220.057 43.8756 220.433C44.6455 220.809 45.308 221.355 45.863 222.072C46.4181 222.788 46.6956 223.71 46.6956 224.838C46.6956 225.912 46.4181 226.888 45.863 227.765C45.3259 228.643 44.5381 229.341 43.4996 229.86C42.4611 230.379 41.2346 230.639 39.8202 230.639ZM59.6202 215.277V219.09H65.7705V222.636H59.6202V226.772H66.5762V230.451H55.0276V211.597H66.5762V215.277H59.6202ZM86.8 227.121H79.7635L78.6355 230.451H73.828L80.6497 211.597H85.9675L92.7892 230.451H87.928L86.8 227.121ZM85.6183 223.576L83.2817 216.673L80.972 223.576H85.6183ZM109.986 230.451L106.065 223.334H104.964V230.451H100.371V211.597H108.079C109.565 211.597 110.827 211.857 111.866 212.376C112.922 212.895 113.71 213.612 114.229 214.525C114.749 215.42 115.008 216.423 115.008 217.533C115.008 218.786 114.65 219.905 113.934 220.89C113.236 221.875 112.197 222.573 110.818 222.985L115.169 230.451H109.986ZM104.964 220.084H107.81C108.652 220.084 109.279 219.878 109.69 219.466C110.12 219.055 110.335 218.473 110.335 217.721C110.335 217.005 110.12 216.441 109.69 216.029C109.279 215.617 108.652 215.411 107.81 215.411H104.964V220.084ZM122.618 220.997C122.618 219.135 123.021 217.479 123.827 216.029C124.632 214.561 125.751 213.424 127.184 212.618C128.634 211.794 130.272 211.382 132.099 211.382C134.337 211.382 136.252 211.973 137.846 213.155C139.44 214.337 140.505 215.948 141.042 217.989H135.993C135.617 217.201 135.08 216.602 134.381 216.19C133.701 215.778 132.922 215.572 132.045 215.572C130.63 215.572 129.484 216.065 128.607 217.049C127.73 218.034 127.291 219.35 127.291 220.997C127.291 222.645 127.73 223.961 128.607 224.945C129.484 225.93 130.63 226.422 132.045 226.422C132.922 226.422 133.701 226.217 134.381 225.805C135.08 225.393 135.617 224.793 135.993 224.005H141.042C140.505 226.046 139.44 227.658 137.846 228.84C136.252 230.003 134.337 230.585 132.099 230.585C130.272 230.585 128.634 230.182 127.184 229.377C125.751 228.553 124.632 227.416 123.827 225.966C123.021 224.516 122.618 222.859 122.618 220.997ZM165.689 211.597V230.451H161.097V222.689H153.953V230.451H149.36V211.597H153.953V218.983H161.097V211.597H165.689Z" fill="#8752CC"/>
</svg>
