<svg width="20" height="24" viewBox="0 0 20 24" fill="none" xmlns="http://www.w3.org/2000/svg">
<path d="M6 0H18C18.5304 0 19.0391 0.210714 19.4142 0.585786C19.7893 0.960859 20 1.46957 20 2V18C20 18.5304 19.7893 19.0391 19.4142 19.4142C19.0391 19.7893 18.5304 20 18 20H6C5.46957 20 4.96086 19.7893 4.58579 19.4142C4.21071 19.0391 4 18.5304 4 18V2C4 1.46957 4.21071 0.960859 4.58579 0.585786C4.96086 0.210714 5.46957 0 6 0V0ZM12.75 11.5C15.5 11.5 16.24 9.47 16.43 8.4C17.34 8.11 18 7.26 18 6.25C18 5 17 4 15.75 4C14.5 4 13.5 5 13.5 6.25C13.5 7.19 14.07 8 14.89 8.33C14.67 9 14 10 12 10C10.62 10 9.66 10.35 9 10.84V6.87C9.87 6.56 10.5 5.73 10.5 4.75C10.5 3.5 9.5 2.5 8.25 2.5C7 2.5 6 3.5 6 4.75C6 5.73 6.63 6.56 7.5 6.87V13.13C6.63 13.44 6 14.27 6 15.25C6 16.5 7 17.5 8.25 17.5C9.5 17.5 10.5 16.5 10.5 15.25C10.5 14.32 9.94 13.5 9.13 13.18C9.41 12.5 10.23 11.5 12.75 11.5ZM8.25 14.5C8.44891 14.5 8.63968 14.579 8.78033 14.7197C8.92098 14.8603 9 15.0511 9 15.25C9 15.4489 8.92098 15.6397 8.78033 15.7803C8.63968 15.921 8.44891 16 8.25 16C8.05109 16 7.86032 15.921 7.71967 15.7803C7.57902 15.6397 7.5 15.4489 7.5 15.25C7.5 15.0511 7.57902 14.8603 7.71967 14.7197C7.86032 14.579 8.05109 14.5 8.25 14.5ZM8.25 4C8.44891 4 8.63968 4.07902 8.78033 4.21967C8.92098 4.36032 9 4.55109 9 4.75C9 4.94891 8.92098 5.13968 8.78033 5.28033C8.63968 5.42098 8.44891 5.5 8.25 5.5C8.05109 5.5 7.86032 5.42098 7.71967 5.28033C7.57902 5.13968 7.5 4.94891 7.5 4.75C7.5 4.55109 7.57902 4.36032 7.71967 4.21967C7.86032 4.07902 8.05109 4 8.25 4ZM15.75 5.5C15.9489 5.5 16.1397 5.57902 16.2803 5.71967C16.421 5.86032 16.5 6.05109 16.5 6.25C16.5 6.44891 16.421 6.63968 16.2803 6.78033C16.1397 6.92098 15.9489 7 15.75 7C15.5511 7 15.3603 6.92098 15.2197 6.78033C15.079 6.63968 15 6.44891 15 6.25C15 6.05109 15.079 5.86032 15.2197 5.71967C15.3603 5.57902 15.5511 5.5 15.75 5.5ZM14 22V24H2C1.46957 24 0.960859 23.7893 0.585786 23.4142C0.210714 23.0391 0 22.5304 0 22V6H2V22H14Z" fill="#8752CC"/>
</svg>
