<svg width="18" height="18" viewBox="0 0 18 18" fill="none" xmlns="http://www.w3.org/2000/svg">
<path d="M16.4602 6.88426C16.4131 6.74541 16.3263 6.6234 16.2106 6.53331C16.095 6.44321 15.9554 6.38896 15.8092 6.37726L11.5335 6.03751L9.68325 1.94176C9.62432 1.80985 9.52848 1.6978 9.40728 1.61915C9.28609 1.54051 9.14472 1.49861 9.00024 1.49854C8.85576 1.49846 8.71435 1.54019 8.59307 1.61871C8.47178 1.69722 8.37582 1.80916 8.31675 1.94101L6.4665 6.03751L2.19075 6.37726C2.04709 6.38864 1.90975 6.44117 1.79516 6.52856C1.68058 6.61595 1.59359 6.7345 1.54462 6.87003C1.49564 7.00556 1.48675 7.15234 1.51901 7.29279C1.55126 7.43324 1.6233 7.56143 1.7265 7.66201L4.88625 10.7423L3.76875 15.5813C3.73481 15.7277 3.74569 15.881 3.79996 16.0212C3.85423 16.1615 3.94939 16.2821 4.0731 16.3676C4.1968 16.453 4.34334 16.4994 4.49368 16.5005C4.64403 16.5016 4.79126 16.4576 4.91625 16.374L9 13.6515L13.0837 16.374C13.2115 16.4588 13.3622 16.5025 13.5155 16.4991C13.6688 16.4958 13.8174 16.4455 13.9413 16.3552C14.0652 16.2649 14.1585 16.1387 14.2086 15.9938C14.2587 15.8489 14.2632 15.6921 14.2215 15.5445L12.8497 10.7445L16.2517 7.68301C16.4745 7.48201 16.5562 7.16851 16.4602 6.88426Z" fill="#8752CC"/>
</svg>
